<?xml version="1.0" encoding="UTF-8"?>
<svg width="1280px" height="1280px" viewBox="0 0 1280 1280" version="1.1" xmlns="http://www.w3.org/2000/svg" xmlns:xlink="http://www.w3.org/1999/xlink">
    <title>themed-jss</title>
    <g id="themed-jss" stroke="none" stroke-width="1" fill="none" fill-rule="evenodd">
        <rect fill="#000000" x="0" y="0" width="1280" height="1280"></rect>
        <path d="M1000,340 C1000,306.862915 973.137085,280 940,280 L344,280 C308.653776,280 280,308.653776 280,344 L280,464 C280,499.346224 308.653776,528 344,528 L936,528 C971.346224,528 1000,499.346224 1000,464 L1000,404 L1000,404 L1032,404 C1049.67311,404 1064,418.326888 1064,436 L1064,576 C1064,593.673112 1049.67311,608 1032,608 L672,608 C654.326888,608 640,622.326888 640,640 L640,744 L640,744 C675.346224,744 704,772.653776 704,808 L704,1000 C704,1035.34622 675.346224,1064 640,1064 C604.653776,1064 576,1035.34622 576,1000 L576,808" id="Path" stroke="#FFFFFF" stroke-width="32" stroke-linecap="round" stroke-linejoin="round"></path>
        <path d="M624,0 L656,0 L656,264 C677.333333,264 688,275 688,297 C688,313 688,329 688,345 C688,353.836556 680.836556,361 672,361 C663.163444,361 656,353.836556 656,345 C656,329 656,313 656,297 C656,275 645.333333,264 624,264 L624,0 Z" id="Rectangle" fill="#F35588"></path>
        <path d="M688,0 L720,0 L720,264 C741.333333,264 752,275 752,297 C752,336.333333 752,375.666667 752,415 C752,423.836556 744.836556,431 736,431 C727.163444,431 720,423.836556 720,415 C720,375.666667 720,336.333333 720,297 C720,275 709.333333,264 688,264 L688,0 Z" id="Rectangle-Copy" fill="#05DFD7"></path>
        <path d="M752,0 L784,0 L784,265 C805.333333,265 816,276 816,298 C816,347.333333 816,396.666667 816,446 C816,454.836556 808.836556,462 800,462 C791.163444,462 784,454.836556 784,446 C784,396.666667 784,347.333333 784,298 C784,276 773.333333,265 752,265 L752,0 Z" id="Rectangle-Copy-2" fill="#A3F7BF"></path>
        <path d="M816,0 L848,0 L848,264 C869.333333,264 880,275 880,297 C880,326.333333 880,355.666667 880,385 C880,393.836556 872.836556,401 864,401 C855.163444,401 848,393.836556 848,385 C848,355.666667 848,326.333333 848,297 C848,275 837.333333,264 816,264 L816,0 Z" id="Rectangle-Copy-3" fill="#FFF591"></path>
    </g>
</svg>