<?xml version="1.0" encoding="UTF-8"?>
<svg width="1280px" height="1280px" viewBox="0 0 1280 1280" version="1.1" xmlns="http://www.w3.org/2000/svg" xmlns:xlink="http://www.w3.org/1999/xlink">
    <title>themed-jss</title>
    <g id="themed-jss" stroke="none" stroke-width="1" fill="none" fill-rule="evenodd">
        <polygon id="Rectangle-Copy-2" fill="#A3F7BF" points="720 0 752 0 752 455 720 455"></polygon>
        <polygon id="Rectangle-Copy" fill="#05DFD7" points="656 0 688 0 688 454 656 454"></polygon>
        <polygon id="Rectangle-Copy-3" fill="#FFF591" points="784 0 816 0 816 454 784 454"></polygon>
        <polygon id="Rectangle" fill="#F35588" points="592 0 624 0 624 454 592 454"></polygon>
        <path d="M1000,530 C1000,496.862915 973.137085,470 940,470 L344,470 C308.653776,470 280,498.653776 280,534 L280,654 C280,689.346224 308.653776,718 344,718 L936,718 C971.346224,718 1000,689.346224 1000,654 L1000,594 L1000,594 L1032,594 C1049.67311,594 1064,608.326888 1064,626 L1064,766 C1064,783.673112 1049.67311,798 1032,798 L672,798 C654.326888,798 640,812.326888 640,830 L640,934 L640,934 C675.346224,934 704,962.653776 704,998 L704,1190 C704,1225.34622 675.346224,1254 640,1254 C604.653776,1254 576,1225.34622 576,1190 L576,998" id="Path" stroke="#BDBDBD" stroke-width="32" stroke-linecap="round" stroke-linejoin="round"></path>
        <path d="M656,454 C664.731359,454 671.829205,460.993901 671.996964,469.685129 L672,470 L672,535 C672,543.836556 664.836556,551 656,551 C647.163444,551 640,543.836556 640,535 L640.003036,470.314871 L640.003036,470.314871 L640,470 C640,461.163444 632.836556,454 624,454 L656,454 Z" id="Path" fill="#F35588"></path>
        <path d="M720,454 C728.731359,454 735.829205,460.993901 735.996964,469.685129 L736,470 L736,663 C736,671.836556 728.836556,679 720,679 C711.163444,679 704,671.836556 704,663 L704.003036,470.314871 L704,470 C704,461.163444 696.836556,454 688,454 L720,454 Z" id="Path-Copy" fill="#05DFD7"></path>
        <path d="M784,454 C792.731359,454 799.829205,460.993901 799.996964,469.685129 L800,470 L800,599 C800,607.836556 792.836556,615 784,615 C775.163444,615 768,607.836556 768,599 L768.003036,470.314871 L768,470 C768,461.163444 760.836556,454 752,454 L784,454 Z" id="Path-Copy-2" fill="#A3F7BF"></path>
        <path d="M848,454 C856.731359,454 863.829205,460.993901 863.996964,469.685129 L864,470 L864,567 C864,575.836556 856.836556,583 848,583 C839.163444,583 832,575.836556 832,567 L832.003036,470.314871 L832,470 C832,461.163444 824.836556,454 816,454 L848,454 Z" id="Path-Copy-3" fill="#FFF591"></path>
    </g>
</svg>