<?xml version="1.0" encoding="UTF-8"?>
<svg width="1280px" height="1280px" viewBox="0 0 1280 1280" version="1.1" xmlns="http://www.w3.org/2000/svg" xmlns:xlink="http://www.w3.org/1999/xlink">
    <title>themed-jss</title>
    <g id="themed-jss" stroke="none" stroke-width="1" fill="none" fill-rule="evenodd">
        <polygon id="Rectangle-Copy-2" fill="#A3F7BF" points="720 1 752 1 752 348 720 348"></polygon>
        <polygon id="Rectangle-Copy" fill="#05DFD7" points="656 1 688 1 688 347 656 347"></polygon>
        <polygon id="Rectangle-Copy-3" fill="#FFF591" points="784 0 816 0 816 347 784 347"></polygon>
        <polygon id="Rectangle" fill="#F35588" points="592 1 624 1 624 347 592 347"></polygon>
        <path d="M960,258 L944,674 L976,674 L976,762 L704,762 L704,1090 C704,1125.34622 675.346224,1154 640,1154 C604.653776,1154 576,1125.34622 576,1090 L576,762 L304,762 L304,674 L336,674 L320,258 L960,258 Z" id="Path" stroke="#979797" fill="#D8D8D8" opacity="0"></path>
        <path d="M304,867 L576,867 L576,1196 C576,1230.79394 604.206061,1259 639,1259 C673.845812,1259 702.143642,1230.84618 702.321424,1196.00082 L704,867 L704,867 L932,867 C956.300529,867 976,847.300529 976,823 L976,795 C976,786.163444 968.836556,779 960,779 L336,779 L336,779 L320,363 L416,363 L448,491 L480,363 L961,362 L949,683.5" id="Path-57" stroke="#BDBDBD" stroke-width="32" stroke-linecap="round" stroke-linejoin="round"></path>
        <path d="M656,347 C664.731359,347 671.829205,353.993901 671.996964,362.685129 L672,363 L672,460 C672,468.836556 664.836556,476 656,476 C647.163444,476 640,468.836556 640,460 L640.003036,363.314871 L640,363 C640,354.163444 632.836556,347 624,347 L656,347 Z" id="Path" fill="#F35588"></path>
        <path d="M720,347 C728.731359,347 735.829205,353.993901 735.996964,362.685129 L736,363 L736,556 C736,564.836556 728.836556,572 720,572 C711.163444,572 704,564.836556 704,556 L704.003036,363.314871 L704,363 C704,354.163444 696.836556,347 688,347 L720,347 Z" id="Path-Copy" fill="#05DFD7"></path>
        <path d="M784,347 C792.731359,347 799.829205,353.993901 799.996964,362.685129 L800,363 L800,492 C800,500.836556 792.836556,508 784,508 C775.163444,508 768,500.836556 768,492 L768.003036,363.314871 L768,363 C768,354.163444 760.836556,347 752,347 L784,347 Z" id="Path-Copy-2" fill="#A3F7BF"></path>
        <path d="M848,347 C856.731359,347 863.829205,353.993901 863.996964,362.685129 L864,363 L864,456 C864,464.836556 856.836556,472 848,472 C839.163444,472 832,464.836556 832,456 L832.003036,363.314871 L832,363 C832,354.163444 824.836556,347 816,347 L848,347 Z" id="Path-Copy-3" fill="#FFF591"></path>
    </g>
</svg>