<?xml version="1.0" encoding="UTF-8"?>
<svg width="1280px" height="1280px" viewBox="0 0 1280 1280" version="1.1" xmlns="http://www.w3.org/2000/svg" xmlns:xlink="http://www.w3.org/1999/xlink">
    <title>themed-jss</title>
    <g id="themed-jss" stroke="none" stroke-width="1" fill="none" fill-rule="evenodd">
        <rect fill="#000000" x="0" y="0" width="1280" height="1280"></rect>
        <polygon id="Rectangle-Copy-2" fill="#A3F7BF" points="720 0 752 0 752 265 720 265"></polygon>
        <polygon id="Rectangle-Copy" fill="#05DFD7" points="656 0 688 0 688 264 656 264"></polygon>
        <polygon id="Rectangle-Copy-3" fill="#FFF591" points="784 0 816 0 816 264 784 264"></polygon>
        <polygon id="Rectangle" fill="#F35588" points="592 0 624 0 624 264 592 264"></polygon>
        <path d="M1000,340 C1000,306.862915 973.137085,280 940,280 L344,280 C308.653776,280 280,308.653776 280,344 L280,464 C280,499.346224 308.653776,528 344,528 L936,528 C971.346224,528 1000,499.346224 1000,464 L1000,404 L1000,404 L1032,404 C1049.67311,404 1064,418.326888 1064,436 L1064,576 C1064,593.673112 1049.67311,608 1032,608 L672,608 C654.326888,608 640,622.326888 640,640 L640,744 L640,744 C675.346224,744 704,772.653776 704,808 L704,1000 C704,1035.34622 675.346224,1064 640,1064 C604.653776,1064 576,1035.34622 576,1000 L576,808" id="Path" stroke="#FFFFFF" stroke-width="32" stroke-linecap="round" stroke-linejoin="round"></path>
        <path d="M656,264 C664.731359,264 671.829205,270.993901 671.996964,279.685129 L672,280 L672,345 C672,353.836556 664.836556,361 656,361 C647.163444,361 640,353.836556 640,345 L640.003036,280.314871 L640.003036,280.314871 L640,280 C640,271.163444 632.836556,264 624,264 L656,264 Z" id="Path" fill="#F35588"></path>
        <path d="M720,264 C728.731359,264 735.829205,270.993901 735.996964,279.685129 L736,280 L736,473 C736,481.836556 728.836556,489 720,489 C711.163444,489 704,481.836556 704,473 L704.003036,280.314871 L704,280 C704,271.163444 696.836556,264 688,264 L720,264 Z" id="Path-Copy" fill="#05DFD7"></path>
        <path d="M784,264 C792.731359,264 799.829205,270.993901 799.996964,279.685129 L800,280 L800,409 C800,417.836556 792.836556,425 784,425 C775.163444,425 768,417.836556 768,409 L768.003036,280.314871 L768,280 C768,271.163444 760.836556,264 752,264 L784,264 Z" id="Path-Copy-2" fill="#A3F7BF"></path>
        <path d="M848,264 C856.731359,264 863.829205,270.993901 863.996964,279.685129 L864,280 L864,377 C864,385.836556 856.836556,393 848,393 C839.163444,393 832,385.836556 832,377 L832.003036,280.314871 L832,280 C832,271.163444 824.836556,264 816,264 L848,264 Z" id="Path-Copy-3" fill="#FFF591"></path>
    </g>
</svg>