<?xml version="1.0" encoding="UTF-8"?>
<svg width="1024px" height="1024px" viewBox="0 0 1024 1024" version="1.1" xmlns="http://www.w3.org/2000/svg" xmlns:xlink="http://www.w3.org/1999/xlink">
    <title>themed-jss</title>
    <g id="themed-jss" stroke="none" stroke-width="1" fill="none" fill-rule="evenodd">
        <rect fill="#000000" x="0" y="0" width="1024" height="1024"></rect>
        <path d="M872,212 C872,178.862915 845.137085,152 812,152 L216,152 C180.653776,152 152,180.653776 152,216 L152,336 C152,371.346224 180.653776,400 216,400 L808,400 C843.346224,400 872,371.346224 872,336 L872,276 L872,276 L904,276 C921.673112,276 936,290.326888 936,308 L936,448 C936,465.673112 921.673112,480 904,480 L544,480 C526.326888,480 512,494.326888 512,512 L512,616 L512,616 C547.346224,616 576,644.653776 576,680 L576,872 C576,907.346224 547.346224,936 512,936 C476.653776,936 448,907.346224 448,872 L448,680" id="Path" stroke="#FFFFFF" stroke-width="32" stroke-linecap="round" stroke-linejoin="round"></path>
        <path d="M496,0 L528,0 L528,136 C549.333333,136 560,147 560,169 C560,185 560,201 560,217 C560,225.836556 552.836556,233 544,233 C535.163444,233 528,225.836556 528,217 C528,201 528,185 528,169 C528,147 517.333333,136 496,136 L496,0 Z" id="Rectangle" fill="#F35588"></path>
        <path d="M560,0 L592,0 L592,136 C613.333333,136 624,147 624,169 C624,208.333333 624,247.666667 624,287 C624,295.836556 616.836556,303 608,303 C599.163444,303 592,295.836556 592,287 C592,247.666667 592,208.333333 592,169 C592,147 581.333333,136 560,136 L560,0 Z" id="Rectangle-Copy" fill="#05DFD7"></path>
        <path d="M624,1 L656,1 L656,137 C677.333333,137 688,148 688,170 C688,219.333333 688,268.666667 688,318 C688,326.836556 680.836556,334 672,334 C663.163444,334 656,326.836556 656,318 C656,268.666667 656,219.333333 656,170 C656,148 645.333333,137 624,137 L624,1 Z" id="Rectangle-Copy-2" fill="#A3F7BF"></path>
        <path d="M688,0 L720,0 L720,136 C741.333333,136 752,147 752,169 C752,198.333333 752,227.666667 752,257 C752,265.836556 744.836556,273 736,273 C727.163444,273 720,265.836556 720,257 C720,227.666667 720,198.333333 720,169 C720,147 709.333333,136 688,136 L688,0 Z" id="Rectangle-Copy-3" fill="#FFF591"></path>
    </g>
</svg>