<?xml version="1.0" encoding="UTF-8"?>
<svg width="1280px" height="1760px" viewBox="0 0 1280 1760" version="1.1" xmlns="http://www.w3.org/2000/svg" xmlns:xlink="http://www.w3.org/1999/xlink">
    <title>themed-jss-long</title>
    <g id="themed-jss-long" stroke="none" stroke-width="1" fill="none" fill-rule="evenodd">
        <g id="Group" transform="translate(304.000000, 0.000000)">
            <polygon id="Rectangle-Copy-2" fill="#A3F7BF" points="416 1 448 1 448 825 416 825"></polygon>
            <polygon id="Rectangle-Copy" fill="#05DFD7" points="352 0 384 0 384 824 352 824"></polygon>
            <polygon id="Rectangle-Copy-3" fill="#FFF591" points="480 1 512 1 512 824 480 824"></polygon>
            <polygon id="Rectangle" fill="#F35588" points="288 0 320 0 320 824 288 824"></polygon>
            <path d="M0,1344 L272,1344 L272,1673 C272,1707.79394 300.206061,1736 335,1736 C369.845812,1736 398.143642,1707.84618 398.321424,1673.00082 L400,1344 L400,1344 L628,1344 C652.300529,1344 672,1324.30053 672,1300 L672,1272 C672,1263.16344 664.836556,1256 656,1256 L32,1256 L32,1256 L16,840 L112,840 L144,968 L176,840 L657,839 L645,1160.5" id="Path-57" stroke="#BDBDBD" stroke-width="32" stroke-linecap="round" stroke-linejoin="round"></path>
            <path d="M352,824 C360.731359,824 367.829205,830.993901 367.996964,839.685129 L368,840 L368,937 C368,945.836556 360.836556,953 352,953 C343.163444,953 336,945.836556 336,937 L336.003036,840.314871 L336,840 C336,831.163444 328.836556,824 320,824 L352,824 Z" id="Path" fill="#F35588"></path>
            <path d="M416,824 C424.731359,824 431.829205,830.993901 431.996964,839.685129 L432,840 L432,1033 C432,1041.83656 424.836556,1049 416,1049 C407.163444,1049 400,1041.83656 400,1033 L400.003036,840.314871 L400,840 C400,831.163444 392.836556,824 384,824 L416,824 Z" id="Path-Copy" fill="#05DFD7"></path>
            <path d="M480,824 C488.731359,824 495.829205,830.993901 495.996964,839.685129 L496,840 L496,969 C496,977.836556 488.836556,985 480,985 C471.163444,985 464,977.836556 464,969 L464.003036,840.314871 L464,840 C464,831.163444 456.836556,824 448,824 L480,824 Z" id="Path-Copy-2" fill="#A3F7BF"></path>
            <path d="M544,824 C552.731359,824 559.829205,830.993901 559.996964,839.685129 L560,840 L560,933 C560,941.836556 552.836556,949 544,949 C535.163444,949 528,941.836556 528,933 L528.003036,840.314871 L528,840 C528,831.163444 520.836556,824 512,824 L544,824 Z" id="Path-Copy-3" fill="#FFF591"></path>
        </g>
        <path d="M960,258 L944,674 L976,674 L976,762 L704,762 L704,1090 C704,1125.34622 675.346224,1154 640,1154 C604.653776,1154 576,1125.34622 576,1090 L576,762 L304,762 L304,674 L336,674 L320,258 L960,258 Z" id="Path" stroke="#979797" fill="#D8D8D8" opacity="0"></path>
    </g>
</svg>